<?xml version="1.0" encoding="UTF-8" standalone="no"?>
<!-- Created with Inkscape (http://www.inkscape.org/) -->

<svg
   xmlns:dc="http://purl.org/dc/elements/1.1/"
   xmlns:cc="http://creativecommons.org/ns#"
   xmlns:rdf="http://www.w3.org/1999/02/22-rdf-syntax-ns#"
   xmlns:svg="http://www.w3.org/2000/svg"
   xmlns="http://www.w3.org/2000/svg"
   xmlns:xlink="http://www.w3.org/1999/xlink"
   xmlns:sodipodi="http://sodipodi.sourceforge.net/DTD/sodipodi-0.dtd"
   xmlns:inkscape="http://www.inkscape.org/namespaces/inkscape"
   id="svg4486"
   height="128"
   width="128"
   version="1.0"
   sodipodi:docname="fastq.svg"
   inkscape:version="0.92.4 (unknown)">
  <sodipodi:namedview
     pagecolor="#ffffff"
     bordercolor="#666666"
     borderopacity="1"
     objecttolerance="10"
     gridtolerance="10"
     guidetolerance="10"
     inkscape:pageopacity="0"
     inkscape:pageshadow="2"
     inkscape:window-width="640"
     inkscape:window-height="480"
     id="namedview45"
     showgrid="false"
     inkscape:zoom="7.4522426"
     inkscape:cx="70.595333"
     inkscape:cy="46.681775"
     inkscape:current-layer="svg4486" />
  <metadata
     id="metadata51">
    <rdf:RDF>
      <cc:Work
         rdf:about="">
        <dc:format>image/svg+xml</dc:format>
        <dc:type
           rdf:resource="http://purl.org/dc/dcmitype/StillImage" />
      </cc:Work>
    </rdf:RDF>
  </metadata>
  <defs
     id="defs4488">
    <linearGradient
       id="linearGradient5060">
      <stop
         id="stop5062"
         offset="0" />
      <stop
         id="stop5064"
         style="stop-opacity:0"
         offset="1" />
    </linearGradient>
    <linearGradient
       id="linearGradient2455"
       y2="5.4565"
       gradientUnits="userSpaceOnUse"
       x2="36.358"
       gradientTransform="matrix(2.6605 0 0 2.7752 .74553 -3.5662)"
       y1="8.059"
       x1="32.892">
      <stop
         id="stop8591"
         style="stop-color:#fefefe"
         offset="0" />
      <stop
         id="stop8593"
         style="stop-color:#cbcbcb"
         offset="1" />
    </linearGradient>
    <linearGradient
       id="linearGradient2459"
       y2="46.017"
       gradientUnits="userSpaceOnUse"
       x2="24"
       gradientTransform="matrix(2.7576 0 0 2.6744 -2.1817 -4.186)"
       y1="2"
       x1="24">
      <stop
         id="stop3213"
         style="stop-color:#fff"
         offset="0" />
      <stop
         id="stop3215"
         style="stop-color:#fff;stop-opacity:0"
         offset="1" />
    </linearGradient>
    <radialGradient
       id="radialGradient2462"
       gradientUnits="userSpaceOnUse"
       cy="112.3"
       cx="102"
       gradientTransform="matrix(.97872 0 0 -1.0535 1.3617 127.48)"
       r="139.56">
      <stop
         id="stop41"
         style="stop-color:#b7b8b9"
         offset="0" />
      <stop
         id="stop47"
         style="stop-color:#ececec"
         offset=".18851" />
      <stop
         id="stop49"
         style="stop-color:#fafafa;stop-opacity:0"
         offset=".25718" />
      <stop
         id="stop51"
         style="stop-color:#fff;stop-opacity:0"
         offset=".30111" />
      <stop
         id="stop53"
         style="stop-color:#fafafa;stop-opacity:0"
         offset=".53130" />
      <stop
         id="stop55"
         style="stop-color:#ebecec;stop-opacity:0"
         offset=".84490" />
      <stop
         id="stop57"
         style="stop-color:#e1e2e3;stop-opacity:0"
         offset="1" />
    </radialGradient>
    <linearGradient
       id="linearGradient2465"
       y2="47.013"
       gradientUnits="userSpaceOnUse"
       x2="25.132"
       gradientTransform="matrix(2.6571 0 0 2.5422 .22866 -4.9133)"
       y1=".98521"
       x1="25.132">
      <stop
         id="stop3602"
         style="stop-color:#f4f4f4"
         offset="0" />
      <stop
         id="stop3604"
         style="stop-color:#dbdbdb"
         offset="1" />
    </linearGradient>
    <linearGradient
       id="linearGradient2467"
       y2="2.9062"
       gradientUnits="userSpaceOnUse"
       x2="-51.786"
       gradientTransform="matrix(2.1456 0 0 2.3791 158.09 -7.7465)"
       y1="50.786"
       x1="-51.786">
      <stop
         id="stop3106"
         style="stop-color:#aaa"
         offset="0" />
      <stop
         id="stop3108"
         style="stop-color:#c8c8c8"
         offset="1" />
    </linearGradient>
    <linearGradient
       id="linearGradient2483"
       y2="609.51"
       gradientUnits="userSpaceOnUse"
       x2="302.86"
       gradientTransform="matrix(.17251 0 0 .039201 .64822 98.774)"
       y1="366.65"
       x1="302.86">
      <stop
         id="stop5050"
         style="stop-opacity:0"
         offset="0" />
      <stop
         id="stop5056"
         offset=".5" />
      <stop
         id="stop5052"
         style="stop-opacity:0"
         offset="1" />
    </linearGradient>
    <radialGradient
       id="radialGradient2485"
       xlink:href="#linearGradient5060"
       gradientUnits="userSpaceOnUse"
       cy="486.65"
       cx="605.71"
       gradientTransform="matrix(-.059038 0 0 .039201 56.93 98.774)"
       r="117.14" />
    <radialGradient
       id="radialGradient2487"
       xlink:href="#linearGradient5060"
       gradientUnits="userSpaceOnUse"
       cy="486.65"
       cx="605.71"
       gradientTransform="matrix(.059038 0 0 .039201 69.07 98.774)"
       r="117.14" />
    <clipPath
       clipPathUnits="userSpaceOnUse"
       id="clipPath4462">
      <path
         style="color:#000000;clip-rule:nonzero;display:inline;overflow:visible;visibility:visible;opacity:1;isolation:auto;mix-blend-mode:normal;color-interpolation:sRGB;color-interpolation-filters:linearRGB;solid-color:#000000;solid-opacity:1;fill:#3db3a4;fill-opacity:1;fill-rule:evenodd;stroke:none;stroke-width:1.00031245;stroke-linecap:round;stroke-linejoin:round;stroke-miterlimit:4;stroke-dasharray:none;stroke-dashoffset:0;stroke-opacity:1;marker:none;paint-order:normal;color-rendering:auto;image-rendering:auto;shape-rendering:auto;text-rendering:auto;enable-background:accumulate"
         d="m 326.71873,52.752689 v 146.015631 h 143.67187 v -146.015631 z m 115.3894,49.599611 a 6.5631562,6.5631562 0 0 1 0.73974,13.0719 l -16.97021,2.41516 c -14.01687,1.99546 -17.73975,6.40944 -23.84216,11.45875 -3.05121,2.52465 -6.80221,5.33145 -11.96045,6.84081 -5.15823,1.50938 -11.33188,1.65377 -19.29199,0.22156 l -16.27258,-2.92969 a 6.5631562,6.5631562 0 1 1 2.32361,-12.91443 l 16.27258,2.92604 c 6.66582,1.19937 10.57952,0.88978 13.28247,0.0989 2.70295,-0.79091 4.59045,-2.13196 7.27844,-4.35607 5.37598,-4.44823 13.52889,-11.94305 30.35888,-14.33899 l 16.97022,-2.417 a 6.5631562,6.5631562 0 0 1 1.11145,-0.0769 z"
         id="path4464"
         inkscape:connector-curvature="0" />
    </clipPath>
  </defs>
  <g
     id="g2478"
     transform="matrix(1.0408 0 0 .63024 -1.5714 43.69)">
    <rect
       id="rect2879"
       style="opacity:.3;fill:url(#linearGradient2483)"
       height="9.5201"
       width="83.3"
       y="113.15"
       x="21.35" />
    <path
       id="path2881"
       style="opacity:.3;fill:url(#radialGradient2485)"
       d="m21.35 113.15v9.5196c-3.0403 0.0179-7.35-2.1329-7.35-4.7604 0-2.6276 3.3928-4.7592 7.35-4.7592z" />
    <path
       id="path2883"
       style="opacity:.3;fill:url(#radialGradient2487)"
       d="m104.65 113.15v9.5196c3.0403 0.0179 7.35-2.1329 7.35-4.7604 0-2.6276-3.3928-4.7592-7.35-4.7592z" />
  </g>
  <path
     id="path4160"
     style="stroke-linejoin:round;stroke:url(#linearGradient2467);stroke-width:.99992;fill:url(#linearGradient2465)"
     d="m17.5 1.5h63.933c3.7384 1.262 23.822 15.639 29.067 25.594v91.406h-93v-117z" />
  <path
     id="path4191"
     style="fill:url(#radialGradient2462)"
     d="m18.979 118c-0.54 0-0.979-0.47-0.979-1.05v-113.78c0-0.5847 0.439-1.0566 0.979-1.0566 20.248 0.2912 42.687-0.4356 62.911 0.0725l27.82 23.902 0.29 90.862c0 0.58-0.44 1.05-0.98 1.05h-90.043z" />
  <path
     id="path2435"
     style="opacity:.6;stroke-linejoin:round;stroke:url(#linearGradient2459);stroke-width:.99992;fill:none"
     d="m109.5 26.518v90.982h-91v-115h63.056" />
  <path
     id="path3232"
     style="opacity:.05;fill-rule:evenodd"
     d="m71.923 1.8392c13.028 0 6.551 25.808 6.551 25.808s31.506-7.19 31.506 5.562l0.08-6.058c-6.74-6.731-20.999-19.9-30.179-24.913 0-0.0003-7.958-0.3988-7.958-0.3988z" />
  <path
     id="path3230"
     style="opacity:.1;fill-rule:evenodd"
     d="m74.396 1.8392c12.182 0 6.125 24.131 6.125 24.131s29.459-5.64 29.459 6.141c1.56-10.052-25.983-33.4-35.584-30.272v0.0002z" />
  <path
     id="path12038"
     style="opacity:.15;fill-rule:evenodd"
     transform="matrix(2.6667 0 0 2.6667 .30873 -.61745)"
     d="m30.771 9.4044s10.357-1.8023 10.357 2.8186c0-2.6095-5.831-9.9093-12.511-11.302 3.247 1.2432 2.806 5.4073 2.154 8.4834z" />
  <path
     id="path4474"
     style="fill:url(#linearGradient2455);fill-rule:evenodd"
     d="m76.621 1.8392c8.4973 0 6.2287 20.432 6.2287 20.432s27.134-2.6161 27.134 9.7068c0-3.0025 0.2291-5.1527-0.35674-6.0896-4.21-6.731-22.391-21.836-28.956-23.815-0.491-0.1485-1.58-0.2338-4.053-0.2338z" />
  <g
     id="g893"
     transform="translate(-0.67093894,0.26837559)">
    <path
       sodipodi:nodetypes="cc"
       inkscape:connector-curvature="0"
       id="path4279"
       d="m 83.391115,77.4708 c 11.556376,1.376354 1.280827,9.683853 13.120461,11.202867"
       style="fill:none;fill-rule:evenodd;stroke:#cc0000;stroke-width:3.22965217;stroke-linecap:round;stroke-linejoin:miter;stroke-miterlimit:4;stroke-dasharray:none;stroke-opacity:1" />
    <path
       id="path4333-2"
       d="m 60.291541,39.024001 a 25.203282,3.8847663 0 0 0 -25.203271,3.884098 25.203282,3.8847663 0 0 0 0.04258,0.186872 c -0.06358,-0.01516 -0.126388,-0.02886 -0.190024,-0.04416 l 5.817471,6.463246 c 12.783168,3.220648 25.565803,2.868882 38.348964,0 l 5.757548,-5.75676 a 25.203282,3.8847663 0 0 0 0.525134,-0.525134 l 0.181353,-0.181352 c -0.04349,0.0087 -0.08739,0.01653 -0.13089,0.02523 a 25.203282,3.8847663 0 0 0 0.05441,-0.167949 25.203282,3.8847663 0 0 0 -25.203271,-3.884098 z m 0,2.437221 a 9.336283,1.4472656 0 0 1 9.336499,1.447666 9.336283,1.4472656 0 0 1 -9.336499,1.446878 9.336283,1.4472656 0 0 1 -9.335713,-1.446878 9.336283,1.4472656 0 0 1 9.335713,-1.447666 z"
       style="color:#000000;clip-rule:nonzero;display:inline;overflow:visible;visibility:visible;opacity:1;isolation:auto;mix-blend-mode:normal;color-interpolation:sRGB;color-interpolation-filters:linearRGB;solid-color:#000000;solid-opacity:1;fill:#6e0000;fill-opacity:1;fill-rule:nonzero;stroke:none;stroke-width:0.40370649px;stroke-linecap:butt;stroke-linejoin:miter;stroke-miterlimit:4;stroke-dasharray:none;stroke-dashoffset:0;stroke-opacity:1;paint-order:normal;color-rendering:auto;image-rendering:auto;shape-rendering:auto;text-rendering:auto;enable-background:accumulate"
       inkscape:connector-curvature="0" />
    <path
       inkscape:connector-curvature="0"
       style="color:#000000;clip-rule:nonzero;display:inline;overflow:visible;visibility:visible;opacity:1;isolation:auto;mix-blend-mode:normal;color-interpolation:sRGB;color-interpolation-filters:linearRGB;solid-color:#000000;solid-opacity:1;fill:#6e0000;fill-opacity:1;fill-rule:nonzero;stroke:none;stroke-width:0.45932826px;stroke-linecap:butt;stroke-linejoin:miter;stroke-miterlimit:4;stroke-dasharray:none;stroke-dashoffset:0;stroke-opacity:1;paint-order:normal;color-rendering:auto;image-rendering:auto;shape-rendering:auto;text-rendering:auto;enable-background:accumulate"
       d="m 40.60634,86.173634 -5.817474,6.463248 c 0.02502,0.01572 0.05202,0.03088 0.07727,0.04652 a 25.488747,3.8847668 0 0 0 -0.205798,0.466784 25.488747,3.8847668 0 0 0 13.447686,3.422833 c 7.119957,0.957454 15.426213,0.971415 22.662761,0.103293 a 25.488747,3.8847668 0 0 0 14.866963,-3.526126 25.488747,3.8847668 0 0 0 -0.242852,-0.499115 c 0.0078,-0.0047 0.01593,-0.0095 0.02364,-0.01421 l -6.463249,-6.463227 c -12.661623,4.026915 -25.284976,3.280121 -38.348962,0 z"
       id="path4335-0" />
    <path
       sodipodi:nodetypes="cssc"
       inkscape:connector-curvature="0"
       id="path4345-5"
       d="m 41.459485,68.657405 7.008069,1.260916 c 12.596436,2.266393 9.542231,-6.100951 22.825523,-7.991976 l 7.307407,-1.040293"
       style="fill:none;fill-opacity:1;fill-rule:evenodd;stroke:#cc0000;stroke-width:3.38268065;stroke-linecap:round;stroke-linejoin:miter;stroke-miterlimit:4;stroke-dasharray:none;stroke-opacity:1" />
    <path
       transform="matrix(0.43062028,0,0,0.43062028,-111.70004,13.980006)"
       clip-path="url(#clipPath4462)"
       style="fill:none;fill-opacity:1;fill-rule:evenodd;stroke:#cc0000;stroke-width:7.96875;stroke-linecap:round;stroke-linejoin:miter;stroke-miterlimit:4;stroke-dasharray:none;stroke-opacity:1"
       d="m 356.37501,109.39545 16.5939,2.20041 c 33.50128,4.44239 14.06603,24.24719 51.5656,18.1088 l 16.68424,-2.73108"
       id="path4341-3"
       inkscape:connector-curvature="0"
       sodipodi:nodetypes="cssc" />
    <path
       style="color:#000000;clip-rule:nonzero;display:inline;overflow:visible;visibility:visible;opacity:1;isolation:auto;mix-blend-mode:normal;color-interpolation:sRGB;color-interpolation-filters:linearRGB;solid-color:#000000;solid-opacity:1;fill:none;fill-opacity:1;fill-rule:evenodd;stroke:#cc0000;stroke-width:3.43150544;stroke-linecap:round;stroke-linejoin:miter;stroke-miterlimit:4;stroke-dasharray:none;stroke-dashoffset:0;stroke-opacity:1;color-rendering:auto;image-rendering:auto;shape-rendering:auto;text-rendering:auto;enable-background:accumulate"
       d="m 42.165973,81.475088 c 11.461945,2.876466 23.257371,3.306772 35.526169,0"
       id="path4347-9"
       inkscape:connector-curvature="0"
       sodipodi:nodetypes="cc" />
    <path
       sodipodi:nodetypes="cc"
       inkscape:connector-curvature="0"
       id="path4349-2"
       d="m 42.165973,75.015784 c 11.715352,2.787496 23.541864,3.129426 35.526169,0"
       style="color:#000000;clip-rule:nonzero;display:inline;overflow:visible;visibility:visible;opacity:1;isolation:auto;mix-blend-mode:normal;color-interpolation:sRGB;color-interpolation-filters:linearRGB;solid-color:#000000;solid-opacity:1;fill:none;fill-opacity:1;fill-rule:evenodd;stroke:#cc0000;stroke-width:3.43150544;stroke-linecap:round;stroke-linejoin:miter;stroke-miterlimit:4;stroke-dasharray:none;stroke-dashoffset:0;stroke-opacity:1;color-rendering:auto;image-rendering:auto;shape-rendering:auto;text-rendering:auto;enable-background:accumulate" />
    <path
       style="color:#000000;clip-rule:nonzero;display:inline;overflow:visible;visibility:visible;opacity:1;isolation:auto;mix-blend-mode:normal;color-interpolation:sRGB;color-interpolation-filters:linearRGB;solid-color:#000000;solid-opacity:1;fill:none;fill-opacity:1;fill-rule:evenodd;stroke:#cc0000;stroke-width:3.43150544;stroke-linecap:round;stroke-linejoin:miter;stroke-miterlimit:4;stroke-dasharray:none;stroke-dashoffset:0;stroke-opacity:1;color-rendering:auto;image-rendering:auto;shape-rendering:auto;text-rendering:auto;enable-background:accumulate"
       d="m 42.165973,54.023046 c 11.461945,2.787543 23.257371,3.129378 35.526169,0"
       id="path4351-2"
       inkscape:connector-curvature="0"
       sodipodi:nodetypes="cc" />
  </g>
</svg>
