<?xml version="1.0" encoding="UTF-8" standalone="no"?>
<!-- Created with Inkscape (http://www.inkscape.org/) -->

<svg
   xmlns:dc="http://purl.org/dc/elements/1.1/"
   xmlns:cc="http://creativecommons.org/ns#"
   xmlns:rdf="http://www.w3.org/1999/02/22-rdf-syntax-ns#"
   xmlns:svg="http://www.w3.org/2000/svg"
   xmlns="http://www.w3.org/2000/svg"
   xmlns:xlink="http://www.w3.org/1999/xlink"
   xmlns:sodipodi="http://sodipodi.sourceforge.net/DTD/sodipodi-0.dtd"
   xmlns:inkscape="http://www.inkscape.org/namespaces/inkscape"
   id="svg4486"
   height="128"
   width="128"
   version="1.0"
   inkscape:version="0.48+devel r"
   sodipodi:docname="file.svg">
  <sodipodi:namedview
     pagecolor="#ffffff"
     bordercolor="#666666"
     borderopacity="1"
     objecttolerance="10"
     gridtolerance="10"
     guidetolerance="10"
     inkscape:pageopacity="0"
     inkscape:pageshadow="2"
     inkscape:window-width="738"
     inkscape:window-height="480"
     id="namedview45"
     showgrid="false"
     inkscape:zoom="1.84375"
     inkscape:cx="64"
     inkscape:cy="64"
     inkscape:window-x="75"
     inkscape:window-y="34"
     inkscape:window-maximized="0"
     inkscape:current-layer="svg4486" />
  <metadata
     id="metadata51">
    <rdf:RDF>
      <cc:Work
         rdf:about="">
        <dc:format>image/svg+xml</dc:format>
        <dc:type
           rdf:resource="http://purl.org/dc/dcmitype/StillImage" />
      </cc:Work>
    </rdf:RDF>
  </metadata>
  <defs
     id="defs4488">
    <linearGradient
       id="linearGradient5060">
      <stop
         id="stop5062"
         offset="0" />
      <stop
         id="stop5064"
         style="stop-opacity:0"
         offset="1" />
    </linearGradient>
    <linearGradient
       id="linearGradient2455"
       y2="5.4565"
       gradientUnits="userSpaceOnUse"
       x2="36.358"
       gradientTransform="matrix(2.6605 0 0 2.7752 .74553 -3.5662)"
       y1="8.059"
       x1="32.892">
      <stop
         id="stop8591"
         style="stop-color:#fefefe"
         offset="0" />
      <stop
         id="stop8593"
         style="stop-color:#cbcbcb"
         offset="1" />
    </linearGradient>
    <linearGradient
       id="linearGradient2459"
       y2="46.017"
       gradientUnits="userSpaceOnUse"
       x2="24"
       gradientTransform="matrix(2.7576 0 0 2.6744 -2.1817 -4.186)"
       y1="2"
       x1="24">
      <stop
         id="stop3213"
         style="stop-color:#fff"
         offset="0" />
      <stop
         id="stop3215"
         style="stop-color:#fff;stop-opacity:0"
         offset="1" />
    </linearGradient>
    <linearGradient
       id="linearGradient2465"
       y2="47.013"
       gradientUnits="userSpaceOnUse"
       x2="25.132"
       gradientTransform="matrix(2.6571 0 0 2.5422 .22866 -4.9133)"
       y1=".98521"
       x1="25.132">
      <stop
         id="stop3602"
         style="stop-color:#f4f4f4"
         offset="0" />
      <stop
         id="stop3604"
         style="stop-color:#dbdbdb"
         offset="1" />
    </linearGradient>
    <linearGradient
       id="linearGradient2467"
       y2="2.9062"
       gradientUnits="userSpaceOnUse"
       x2="-51.786"
       gradientTransform="matrix(2.1456 0 0 2.3791 158.09 -7.7465)"
       y1="50.786"
       x1="-51.786">
      <stop
         id="stop3106"
         style="stop-color:#aaa"
         offset="0" />
      <stop
         id="stop3108"
         style="stop-color:#c8c8c8"
         offset="1" />
    </linearGradient>
    <linearGradient
       id="linearGradient2483"
       y2="609.51"
       gradientUnits="userSpaceOnUse"
       x2="302.86"
       gradientTransform="matrix(.17251 0 0 .039201 .64822 98.774)"
       y1="366.65"
       x1="302.86">
      <stop
         id="stop5050"
         style="stop-opacity:0"
         offset="0" />
      <stop
         id="stop5056"
         offset=".5" />
      <stop
         id="stop5052"
         style="stop-opacity:0"
         offset="1" />
    </linearGradient>
    <radialGradient
       id="radialGradient2485"
       xlink:href="#linearGradient5060"
       gradientUnits="userSpaceOnUse"
       cy="486.65"
       cx="605.71"
       gradientTransform="matrix(-.059038 0 0 .039201 56.93 98.774)"
       r="117.14" />
    <radialGradient
       id="radialGradient2487"
       xlink:href="#linearGradient5060"
       gradientUnits="userSpaceOnUse"
       cy="486.65"
       cx="605.71"
       gradientTransform="matrix(.059038 0 0 .039201 69.07 98.774)"
       r="117.14" />
    <linearGradient
       x1="22.104"
       y1="39.699"
       gradientTransform="matrix(2.6036612,0,0,3.7716845,0.23125128,-31.910097)"
       x2="22.104"
       gradientUnits="userSpaceOnUse"
       y2="9.2626"
       id="linearGradient2436">
      <stop
         offset="0"
         style="stop-color:#8e8e8e"
         id="stop4340" />
      <stop
         offset="1"
         style="stop-color:#b5b5b5"
         id="stop4342" />
    </linearGradient>
  </defs>
  <g
     id="g2478"
     transform="matrix(1.0408 0 0 .63024 -1.5714 43.69)">
    <rect
       id="rect2879"
       style="opacity:.3;fill:url(#linearGradient2483)"
       height="9.5201"
       width="83.3"
       y="113.15"
       x="21.35" />
    <path
       id="path2881"
       style="opacity:.3;fill:url(#radialGradient2485)"
       d="m21.35 113.15v9.5196c-3.0403 0.0179-7.35-2.1329-7.35-4.7604 0-2.6276 3.3928-4.7592 7.35-4.7592z" />
    <path
       id="path2883"
       style="opacity:.3;fill:url(#radialGradient2487)"
       d="m104.65 113.15v9.5196c3.0403 0.0179 7.35-2.1329 7.35-4.7604 0-2.6276-3.3928-4.7592-7.35-4.7592z" />
  </g>
  <path
     id="path4160"
     style="stroke-linejoin:round;stroke:url(#linearGradient2467);stroke-width:.99992;fill:url(#linearGradient2465)"
     d="m17.5 1.5h63.933c3.7384 1.262 23.822 15.639 29.067 25.594v91.406h-93v-117z" />
  <path
     id="path2435"
     style="opacity:.6;stroke-linejoin:round;stroke:url(#linearGradient2459);stroke-width:.99992;fill:none"
     d="m109.5 26.518v90.982h-91v-115h63.056" />
  <path
     id="path3232"
     style="opacity:.05;fill-rule:evenodd"
     d="m71.923 1.8392c13.028 0 6.551 25.808 6.551 25.808s31.506-7.19 31.506 5.562l0.08-6.058c-6.74-6.731-20.999-19.9-30.179-24.913 0-0.0003-7.958-0.3988-7.958-0.3988z" />
  <path
     id="path3230"
     style="opacity:.1;fill-rule:evenodd"
     d="m74.396 1.8392c12.182 0 6.125 24.131 6.125 24.131s29.459-5.64 29.459 6.141c1.56-10.052-25.983-33.4-35.584-30.272v0.0002z" />
  <path
     id="path12038"
     style="opacity:.15;fill-rule:evenodd"
     transform="matrix(2.6667 0 0 2.6667 .30873 -.61745)"
     d="m30.771 9.4044s10.357-1.8023 10.357 2.8186c0-2.6095-5.831-9.9093-12.511-11.302 3.247 1.2432 2.806 5.4073 2.154 8.4834z" />
  <path
     id="path4474"
     style="fill:url(#linearGradient2455);fill-rule:evenodd"
     d="m76.621 1.8392c8.4973 0 6.2287 20.432 6.2287 20.432s27.134-2.6161 27.134 9.7068c0-3.0025 0.2291-5.1527-0.35674-6.0896-4.21-6.731-22.391-21.836-28.956-23.815-0.491-0.1485-1.58-0.2338-4.053-0.2338z" />
  <path
     inkscape:connector-curvature="0"
     id="path3406"
     style="opacity:0.7;fill:url(#linearGradient2436)"
     d="m 30.010752,59.353253 6.140768,0 0,2.617771 -6.141291,0 0,-2.617771 z m 6.977407,0 5.794175,0 0,2.617771 -5.794175,0 0,-2.617771 z m 6.630552,0 5.100727,0 0,2.617771 -5.100727,0 0,-2.617771 z m 5.937367,0 2.240471,0 0,2.617771 -2.240471,0 0,-2.617771 z m 3.076928,0 5.014078,0 0,2.617771 -5.014078,0 0,-2.617771 z m 5.850456,0 12.988333,0 0,2.617771 -12.988333,0 0,-2.617771 z m 13.824711,0 9.867949,0 0,2.617771 -9.867949,0 0,-2.617771 z m 10.704327,0 3.020646,0 0,2.617771 -3.020646,0 0,-2.617771 z m 3.858595,0 5.968517,0 0,2.617771 -5.96747,0 0,-2.617771 z m -56.857987,15.706626 9.664287,0 0,2.617771 -9.66481,0 0,-2.617771 z m 10.381557,0 4.649684,0 0,2.617771 -4.649684,0 0,-2.617771 z m 5.630563,0 2.186153,0 0,2.617771 -2.186153,0 0,-2.617771 z m 2.727456,0 4.209637,0 0,2.617771 -4.209637,0 0,-2.617771 z m 4.926645,0 4.209637,0 0,2.617771 -4.209637,0 0,-2.617771 z m 5.542606,0 6.760918,0 0,2.617771 -6.760918,0 0,-2.617771 z m 7.566144,0 8.872411,0 0,2.617771 -8.872411,0 0,-2.617771 z m 10.117423,0 5.969303,0 0,2.617771 -5.969303,0 0,-2.617771 z m 6.685787,0 1.395272,0 0,2.617771 -1.394382,0 0,-2.617771 z M 30.01337,64.588795 l 10.282605,0 0,2.617771 -10.282605,0 0,-2.617771 z m 11.088878,0 11.017936,0 0,2.617771 -11.017936,0 0,-2.617771 z m 11.82421,0 4.399949,0 0,2.617771 -4.399949,0 0,-2.617771 z m 5.205961,0 10.364541,0 0,2.617771 -10.364541,0 0,-2.617771 z m 19.072818,0 2.765675,0 0,2.617771 -2.765675,0 0,-2.617771 z m -7.902265,0 7.096253,0 0,2.617771 -7.096253,0 0,-2.617771 z m 11.473952,0 1.621787,0 0,2.617771 -1.621787,0 0,-2.617771 z m 2.426673,0 4.400473,0 0,2.617771 -4.399949,0 0,-2.617771 z m -53.190489,5.235542 11.217411,0 0,2.617771 -11.217149,0 0,-2.617771 z m 12.096982,0 12.019757,0 0,2.617771 -12.019757,0 0,-2.617771 z m 12.899067,0 4.799944,0 0,2.617771 -4.799944,0 0,-2.617771 z m 5.679254,0 11.306676,0 0,2.617771 -11.306676,0 0,-2.617771 z m 20.806567,0 3.017243,0 0,2.617771 -3.017243,0 0,-2.617771 z m -8.620581,0 7.741272,0 0,2.617771 -7.741272,0 0,-2.617771 z m 12.517133,0 1.769221,0 0,2.617771 -1.769221,0 0,-2.617771 z m 2.646567,0 4.800992,0 0,2.617771 -4.799945,0 0,-2.617771 z m -58.025512,-15.706626 8.014568,0 0,2.617771 -8.015615,0 0,-2.617771 z m 8.865867,0 13.307439,0 0,2.617771 -13.307439,0 0,-2.617771 z m 14.158999,0 6.426628,0 0,2.617771 -6.426628,0 0,-2.617771 z m 14.11476,0 5.103344,0 0,2.617771 -5.103344,0 0,-2.617771 z m 5.954644,0 8.191005,0 0,2.617771 -8.191005,0 0,-2.617771 z m 9.039163,0 13.308748,0 0,2.617771 -13.307701,0 0,-2.617771 z m -21.833781,0 5.985533,0 0,2.617771 -5.985533,0 0,-2.617771 z m -30.300699,-31.413252 6.140767,0 0,2.617771 -6.141291,0 0,-2.617771 z m 6.977407,0 5.794174,0 0,2.617771 -5.794174,0 0,-2.617771 z m 6.630552,0 5.100727,0 0,2.617771 -5.100727,0 0,-2.617771 z m 5.937366,0 2.240472,0 0,2.617771 -2.240472,0 0,-2.617771 z m 3.076928,0 5.014079,0 0,2.617771 -5.014079,0 0,-2.617771 z m 5.850457,0 12.988332,0 0,2.617771 -12.988332,0 0,-2.617771 z m 13.82471,0 9.86795,0 0,2.617771 -9.86795,0 0,-2.617771 z m 10.704327,0 3.020646,0 0,2.617771 -3.020646,0 0,-2.617771 z m 3.857024,0 5.967471,0 0.0026,2.617771 -5.967471,0 0,-2.617771 z m -56.855368,5.235542 9.664287,0 0,2.617771 -9.664811,0 0,-2.617771 z m 10.546476,0 4.649684,0 0,2.617771 -4.649684,0 0,-2.617771 z m 5.531612,0 2.186152,0 0,2.617771 -2.186152,0 0,-2.617771 z m 3.068289,0 4.209637,0 0,2.617771 -4.209637,0 0,-2.617771 z m 5.091826,0 4.209638,0 0,2.617771 -4.209638,0 0,-2.617771 z m 5.091827,0 6.760917,0 0,2.617771 -6.760917,0 0,-2.617771 z m 7.643106,0 8.872673,0 0,2.617771 -8.872673,0 0,-2.617771 z m 9.7546,0 5.969303,0 0,2.617771 -5.969303,0 0,-2.617771 z m 6.850706,0 1.395272,0 0,2.617771 -1.394355,0 0,-2.617771 z m -53.577919,10.471084 11.217411,0 0,2.617771 -11.217149,0 0,-2.617771 z m 12.096982,0 12.019757,0 0,2.617771 -12.019757,0 0,-2.617771 z m 12.899067,0 4.799944,0 0,2.617771 -4.799944,0 0,-2.617771 z m 5.679254,0 11.306676,0 0,2.617771 -11.306676,0 0,-2.617771 z m 20.806567,0 3.017243,0 0,2.617771 -3.017243,0 0,-2.617771 z m -8.620581,0 7.741272,0 0,2.617771 -7.741272,0 0,-2.617771 z m 12.517133,0 1.769221,0 0,2.617771 -1.769221,0 0,-2.617771 z m 2.646567,0 4.800992,0 0,2.617771 -4.799945,0 0,-2.617771 z m -58.025512,-5.235542 8.014568,0 0,2.617771 -8.015615,0 0,-2.617771 z m 8.865867,0 13.307439,0 0,2.617771 -13.307439,0 0,-2.617771 z m 14.158999,0 6.426628,0 0,2.617771 -6.426628,0 0,-2.617771 z m 14.11476,0 5.103344,0 0,2.617771 -5.103344,0 0,-2.617771 z m 5.954644,0 8.191005,0 0,2.617771 -8.191005,0 0,-2.617771 z m 9.039163,0 13.308748,0 0,2.617771 -13.307701,0 0,-2.617771 z m -21.833781,0 5.985533,0 0,2.617771 -5.985533,0 0,-2.617771 z m -30.300699,10.471084 4.275867,0 0,2.617771 -4.27482,0 0,-2.617771 z m 5.382137,0 15.560031,0 0,2.617771 -15.559769,0 0,-2.617771 z m -5.382137,47.119878 9.664287,0 0,2.617771 -9.664811,0 0,-2.617771 z m 10.381556,0 4.649685,0 0,2.617771 -4.649685,0 0,-2.617771 z m 5.630564,0 2.186153,0 0,2.617771 -2.186153,0 0,-2.617771 z m 2.727455,0 4.209638,0 0,2.617771 -4.209638,0 0,-2.617771 z m 4.926645,0 4.209638,0 0,2.617771 -4.209638,0 0,-2.617771 z m 5.542607,0 6.760917,0 0,2.617771 -6.760917,0 0,-2.617771 z m 7.566143,0 8.872412,0 0,2.617771 -8.872412,0 0,-2.617771 z m 10.117423,0 5.969304,0 0,2.617771 -5.969304,0 0,-2.617771 z m 6.685788,0 1.395272,0 0,2.617771 -1.394382,0 0,-2.617771 z m -53.577919,-5.235542 8.014567,0 0,2.617771 -8.015615,0 0,-2.617771 z m 8.865866,0 13.307439,0 0,2.617771 -13.307439,0 0,-2.617771 z m 14.159,0 6.426628,0 0,2.617771 -6.426628,0 0,-2.617771 z m 14.11476,0 5.103344,0 0,2.617771 -5.103344,0 0,-2.617771 z m 5.954643,0 8.191006,0 0,2.617771 -8.191006,0 0,-2.617771 z m 9.039164,0 13.308747,0 0,2.617771 -13.3077,0 0,-2.617771 z m -21.833781,0 5.985533,0 0,2.617771 -5.985533,0 0,-2.617771 z m -30.3007,10.471084 10.127371,0 0,2.617771 -10.128156,0 0,-2.617771 z m 10.963749,0 3.188969,0 0,2.617771 -3.188969,0 0,-2.617771 z m 4.025085,0 7.280806,0 0,2.617771 -7.280806,0 0,-2.617771 z m 8.117184,0 4.968006,0 0,2.617771 -4.968006,0 0,-2.617771 z m 5.804384,0 4.968005,0 0,2.617771 -4.968005,0 0,-2.617771 z m 5.804383,0 7.191802,0 0,2.617771 -7.191802,0 0,-2.617771 z m 8.02818,0 1.498831,0 0,2.617771 -1.498831,0 0,-2.617771 z m 2.335078,0 9.326856,0 0,2.617771 -9.326856,0 0,-2.617771 z m 10.162187,0 4.96853,0 0,2.617771 -4.968006,0 0,-2.617771 z m -55.240203,5.235543 9.938105,0 0,2.61777 -9.937058,0 0,-2.61777 z m 16.378607,0 6.383959,0 0,2.61777 -6.383959,0 0,-2.61777 z m 7.300702,0 5.85098,0 0,2.61777 -5.85098,0 0,-2.61777 z m 15.680448,0 5.141302,0 0,2.61777 -5.139993,0 0,-2.61777 z m -2.946825,0 2.030187,0 0,2.61777 -2.030187,0 0,-2.61777 z m -5.967994,0 5.051251,0 0,2.61777 -5.051251,0 0,-2.61777 z m -19.592183,0 4.607015,0 0,2.61777 -4.607015,0 0,-2.61777 z" />
</svg>
