<?xml version="1.0" encoding="UTF-8" standalone="no"?>
<!-- Created with Inkscape (http://www.inkscape.org/) -->

<svg
   xmlns:dc="http://purl.org/dc/elements/1.1/"
   xmlns:cc="http://creativecommons.org/ns#"
   xmlns:rdf="http://www.w3.org/1999/02/22-rdf-syntax-ns#"
   xmlns:svg="http://www.w3.org/2000/svg"
   xmlns="http://www.w3.org/2000/svg"
   xmlns:sodipodi="http://sodipodi.sourceforge.net/DTD/sodipodi-0.dtd"
   xmlns:inkscape="http://www.inkscape.org/namespaces/inkscape"
   width="42mm"
   height="42mm"
   viewBox="0 0 148.81889 148.8189"
   id="svg1246"
   version="1.1"
   inkscape:version="0.92+devel trunk-79-g7263f3a 2017-07-06 custom"
   sodipodi:docname="maha_lab_gray.svg"
   inkscape:export-filename="/home/doctormo/Documents/Maha/media/maha_lab.png"
   inkscape:export-xdpi="241.89999"
   inkscape:export-ydpi="241.89999">
  <defs
     id="defs1248" />
  <sodipodi:namedview
     id="base"
     pagecolor="#ffffff"
     bordercolor="#666666"
     borderopacity="1.0"
     inkscape:pageopacity="0.0"
     inkscape:pageshadow="2"
     inkscape:zoom="3.959798"
     inkscape:cx="9.9128303"
     inkscape:cy="80.783317"
     inkscape:document-units="px"
     inkscape:current-layer="layer1"
     showgrid="false"
     fit-margin-top="5"
     fit-margin-left="5"
     fit-margin-right="5"
     fit-margin-bottom="5"
     inkscape:window-width="1855"
     inkscape:window-height="1056"
     inkscape:window-x="65"
     inkscape:window-y="24"
     inkscape:window-maximized="1"
     inkscape:document-rotation="0" />
  <metadata
     id="metadata1251">
    <rdf:RDF>
      <cc:Work
         rdf:about="">
        <dc:format>image/svg+xml</dc:format>
        <dc:type
           rdf:resource="http://purl.org/dc/dcmitype/StillImage" />
        <dc:title />
      </cc:Work>
    </rdf:RDF>
  </metadata>
  <g
     inkscape:label="Layer 1"
     inkscape:groupmode="layer"
     id="layer1"
     transform="translate(-326.05628,-334.97284)">
    <path
       style="fill:#babdb6;stroke:none;stroke-width:0.9375px;stroke-linecap:butt;stroke-linejoin:miter;stroke-opacity:1"
       d="m 356.57813,436.83807 41.26465,23.84583 41.00608,-28.18049 4.55056,-50.72882 -41.28113,-23.81469 -45.60169,26.5803 z"
       id="path819"
       inkscape:connector-curvature="0"
       sodipodi:nodetypes="ccccccc" />
    <path
       style="color:#000000;clip-rule:nonzero;display:inline;overflow:visible;visibility:visible;opacity:1;isolation:auto;mix-blend-mode:normal;color-interpolation:sRGB;color-interpolation-filters:linearRGB;solid-color:#000000;solid-opacity:1;fill:#ffffff;fill-opacity:1;fill-rule:nonzero;stroke:none;stroke-width:1.01499999;stroke-linecap:round;stroke-linejoin:round;stroke-miterlimit:4;stroke-dasharray:none;stroke-dashoffset:0;stroke-opacity:1;marker:none;paint-order:normal;color-rendering:auto;image-rendering:auto;shape-rendering:auto;text-rendering:auto;enable-background:accumulate"
       d="M 79.029297 23.498047 C 77.911305 23.498047 31.178137 50.479056 30.619141 51.447266 C 30.060145 52.415475 30.060145 106.37945 30.619141 107.34766 C 30.682497 107.45739 31.443826 107.9577 32.556641 108.65625 L 45.775391 85.759766 L 50.513672 99.400391 L 64.480469 96.560547 L 51.142578 119.66211 C 53.178044 120.84242 55.204562 122.02026 57.253906 123.19922 L 70.595703 100.08984 L 83.841797 98.666016 L 89.800781 111.17773 L 76.572266 134.0918 C 77.992739 134.85082 78.887591 135.29686 79.029297 135.29688 C 80.147289 135.29688 126.88046 108.31587 127.43945 107.34766 C 127.99845 106.37945 127.99845 52.415475 127.43945 51.447266 C 127.36858 51.324508 126.53435 50.772968 125.16602 49.921875 L 114.75977 67.947266 L 105.27734 62.474609 L 102.03906 68.083984 L 92.316406 62.46875 L 106.07422 38.638672 C 104.02841 37.453314 101.99508 36.287897 99.955078 35.115234 L 86.201172 58.939453 L 79.964844 55.337891 L 83.203125 49.728516 L 77.027344 46.164062 L 73.789062 51.773438 L 67.496094 48.138672 L 81.132812 24.519531 C 79.970886 23.904746 79.156048 23.498047 79.029297 23.498047 z "
       transform="matrix(0.93749995,0,0,0.93749995,326.05628,334.97284)"
       id="path4408-8" />
    <path
       id="path4414-1"
       style="color:#000000;clip-rule:nonzero;display:inline;overflow:visible;visibility:visible;opacity:1;isolation:auto;mix-blend-mode:normal;color-interpolation:sRGB;color-interpolation-filters:linearRGB;solid-color:#000000;solid-opacity:1;fill:none;fill-opacity:1;fill-rule:nonzero;stroke:#ffffff;stroke-width:9.08956432;stroke-linecap:round;stroke-linejoin:round;stroke-miterlimit:4;stroke-dasharray:none;stroke-dashoffset:0;stroke-opacity:1;marker:none;paint-order:normal;color-rendering:auto;image-rendering:auto;shape-rendering:auto;text-rendering:auto;enable-background:accumulate"
       d="m 456.85028,442.26974 0,-64.14461 m -113.65435,-1.47377 55.55086,-32.0723 m -56.05519,97.15136 56.18345,32.43754"
       inkscape:connector-curvature="0"
       sodipodi:nodetypes="cccccc" />
    <path
       sodipodi:nodetypes="sssss"
       inkscape:connector-curvature="0"
       id="path4418-9"
       d="m 395.17626,410.48185 c -5.56201,0.076 -5.33798,6.81773 0.84653,7.94148 6.44157,1.17049 15.86375,0.1103 22.30903,-2.37799 5.38579,-2.07931 4.38292,-9.07928 -0.84649,-7.94149 -7.62573,1.65915 -14.80716,2.27552 -22.30907,2.378 z"
       style="fill:#555753;stroke:none;stroke-width:0.50807327px;stroke-linecap:butt;stroke-linejoin:miter;stroke-opacity:1" />
    <path
       style="fill:#555753;fill-opacity:1;stroke:none;stroke-width:0.50807327px;stroke-linecap:butt;stroke-linejoin:miter;stroke-opacity:1"
       d="m 383.81009,394.91121 c -5.29193,-1.71393 -7.2444,4.74279 -1.74819,7.79279 5.72464,3.17678 14.98832,5.19812 21.89127,4.91104 5.76826,-0.23991 7.0661,-7.19123 1.74826,-7.79279 -7.75472,-0.87723 -14.75379,-2.59934 -21.89134,-4.91104 z"
       id="path4420-3"
       inkscape:connector-curvature="0"
       sodipodi:nodetypes="sssss" />
  </g>
</svg>
