<?xml version="1.0" encoding="UTF-8" standalone="no"?>
<!-- Animated using aniGen version 0.8.1 Quality of Life - http://anigen.org -->

<svg
   xmlns:anigen="http://www.anigen.org/namespace"
   xmlns:dc="http://purl.org/dc/elements/1.1/"
   xmlns:cc="http://creativecommons.org/ns#"
   xmlns:rdf="http://www.w3.org/1999/02/22-rdf-syntax-ns#"
   xmlns:svg="http://www.w3.org/2000/svg"
   xmlns="http://www.w3.org/2000/svg"
   xmlns:sodipodi="http://sodipodi.sourceforge.net/DTD/sodipodi-0.dtd"
   xmlns:inkscape="http://www.inkscape.org/namespaces/inkscape"
   width="200"
   height="223.78729"
   viewBox="0 0 708.66138 792.94711"
   id="svg1246"
   version="1.1"
   inkscape:version="0.92+devel trunk-79-g7263f3a 2017-07-06 custom"
   sodipodi:docname="maha_lab_large.svg"
   inkscape:export-filename="/home/doctormo/Documents/Maha/media/maha_lab.png"
   inkscape:export-xdpi="241.89999"
   inkscape:export-ydpi="241.89999"
   preserveAspectRatio="xMidYMid"
   anigen:version="0.8.1">
  <defs
     id="defs1248" />
  <sodipodi:namedview
     id="base"
     pagecolor="#ffffff"
     bordercolor="#666666"
     borderopacity="1.0"
     inkscape:pageopacity="0.0"
     inkscape:pageshadow="2"
     inkscape:zoom="3.959798"
     inkscape:cx="105.57695"
     inkscape:cy="138.6845"
     inkscape:document-units="px"
     inkscape:current-layer="layer1"
     showgrid="false"
     fit-margin-top="5"
     fit-margin-left="5"
     fit-margin-right="5"
     fit-margin-bottom="5"
     inkscape:window-width="1855"
     inkscape:window-height="1056"
     inkscape:window-x="65"
     inkscape:window-y="24"
     inkscape:window-maximized="1"
     anigen:loop="64"
     anigen:loopbegin="59.5"
     inkscape:document-rotation="0" />
  <metadata
     id="metadata1251">
    <rdf:rdf
       id="rdf:rdf9941">
      <cc:work
         rdf:about=""
         id="cc:work5695">
        <dc:format
           id="dc:format6109">image/svg+xml</dc:format>
        <dc:type
           rdf:resource="http://purl.org/dc/dcmitype/StillImage"
           id="dc:type9548" />
        <dc:title
           id="dc:title9157" />
      </cc:work>
    </rdf:rdf>
    <rdf:RDF>
      <cc:Work
         rdf:about="">
        <dc:format>image/svg+xml</dc:format>
        <dc:type
           rdf:resource="http://purl.org/dc/dcmitype/StillImage" />
      </cc:Work>
    </rdf:RDF>
  </metadata>
  <g
     inkscape:label="Layer 1"
     inkscape:groupmode="layer"
     id="layer1"
     transform="translate(-320.43026,296.51782)">
    <g
       id="g1403"
       transform="matrix(5.4623767,0,0,5.4623767,-1508.9385,-2136.1966)">
      <path
         id="path4408-8"
         transform="matrix(0.93749995,0,0,0.93749995,326.05628,334.97284)"
         d="m 79.029297,23.498047 c -1.117992,0 -47.85116,26.981009 -48.410156,27.949219 -0.558996,0.968209 -0.558996,54.932184 0,55.900394 0.06336,0.10973 0.824685,0.61004 1.9375,1.30859 l 13.21875,-22.896484 4.738281,13.640625 13.966797,-2.839844 -13.337891,23.101563 c 2.035466,1.18031 4.061984,2.35815 6.111328,3.53711 l 13.341797,-23.10938 13.246094,-1.423824 5.958984,12.511714 -13.228515,22.91407 c 1.420473,0.75902 2.315325,1.20506 2.457031,1.20508 1.117992,0 47.851163,-26.98101 48.410153,-27.94922 0.559,-0.96821 0.559,-54.932185 0,-55.900394 -0.0709,-0.122758 -0.9051,-0.674298 -2.27343,-1.525391 l -10.40625,18.025391 -9.48243,-5.472657 -3.23828,5.609375 -9.722654,-5.615234 13.757814,-23.830078 c -2.04581,-1.185358 -4.07914,-2.350775 -6.119142,-3.523438 l -13.753906,23.824219 -6.236328,-3.601562 3.238281,-5.609375 -6.175781,-3.564454 -3.238282,5.609376 -6.292968,-3.634766 13.636718,-23.619141 c -1.161926,-0.614785 -1.976764,-1.021484 -2.103515,-1.021484 z"
         style="color:#000000;clip-rule:nonzero;display:inline;overflow:visible;visibility:visible;opacity:1;isolation:auto;mix-blend-mode:normal;color-interpolation:sRGB;color-interpolation-filters:linearRGB;solid-color:#000000;solid-opacity:1;fill:#cc0000;fill-opacity:1;fill-rule:nonzero;stroke:none;stroke-width:1.01499999;stroke-linecap:round;stroke-linejoin:round;stroke-miterlimit:4;stroke-dasharray:none;stroke-dashoffset:0;stroke-opacity:1;marker:none;paint-order:normal;color-rendering:auto;image-rendering:auto;shape-rendering:auto;text-rendering:auto;enable-background:accumulate"
         inkscape:connector-curvature="0" />
      <path
         sodipodi:nodetypes="cccccc"
         inkscape:connector-curvature="0"
         d="m 456.85028,442.26974 v -64.14461 m -113.65435,-1.47377 55.55086,-32.0723 m -56.05519,97.15136 56.18345,32.43754"
         style="color:#000000;clip-rule:nonzero;display:inline;overflow:visible;visibility:visible;opacity:1;isolation:auto;mix-blend-mode:normal;color-interpolation:sRGB;color-interpolation-filters:linearRGB;solid-color:#000000;solid-opacity:1;fill:none;fill-opacity:1;fill-rule:nonzero;stroke:#cc0000;stroke-width:9.08956432;stroke-linecap:round;stroke-linejoin:round;stroke-miterlimit:4;stroke-dasharray:none;stroke-dashoffset:0;stroke-opacity:1;marker:none;paint-order:normal;color-rendering:auto;image-rendering:auto;shape-rendering:auto;text-rendering:auto;enable-background:accumulate"
         id="path4414-1" />
      <path
         style="fill:#ffffff;stroke:none;stroke-width:0.50807327px;stroke-linecap:butt;stroke-linejoin:miter;stroke-opacity:1"
         d="m 395.17626,410.48185 c -5.56201,0.076 -5.33798,6.81773 0.84653,7.94148 6.44157,1.17049 15.86375,0.1103 22.30903,-2.37799 5.38579,-2.07931 4.38292,-9.07928 -0.84649,-7.94149 -7.62573,1.65915 -14.80716,2.27552 -22.30907,2.378 z"
         id="path4418-9"
         inkscape:connector-curvature="0"
         sodipodi:nodetypes="sssss" />
      <path
         id="path2747"
         style="fill:#ffffff;stroke:none;stroke-width:0.50807327px;stroke-linecap:butt;stroke-linejoin:miter;stroke-opacity:1"
         d="m 395.17626,410.48185 c -5.56201,0.076 -5.33798,6.81773 0.84653,7.94148 6.44157,1.17049 15.86375,0.1103 22.30903,-2.37799 5.38579,-2.07931 4.38292,-9.07928 -0.84649,-7.94149 -7.62573,1.65915 -14.80716,2.27552 -22.30907,2.378 z"
         inkscape:connector-curvature="0"
         sodipodi:nodetypes="sssss">
        <animateTransform
           id="animateTransform363"
           fill="freeze"
           accumulate="none"
           additive="sum"
           repeatCount="1"
           begin="60.5s"
           dur="2s"
           keySplines="0 0 1 1"
           keyTimes="0;1"
           calcMode="spline"
           values="0 0;21.35743383325712 10.285670592880365"
           type="translate"
           attributeType="auto"
           attributeName="transform" />
      </path>
      <path
         sodipodi:nodetypes="sssss"
         inkscape:connector-curvature="0"
         id="path4420-3"
         d="m 385.85945,396.92445 c -5.29193,-1.71393 -7.2444,4.74279 -1.74819,7.79279 5.72464,3.17678 14.98832,5.19812 21.89127,4.91104 5.76826,-0.23991 7.0661,-7.19123 1.74826,-7.79279 -7.75472,-0.87723 -14.75379,-2.59934 -21.89134,-4.91104 z"
         style="fill:#ffffff;fill-opacity:1;stroke:none;stroke-width:0.50807327px;stroke-linecap:butt;stroke-linejoin:miter;stroke-opacity:1" />
      <path
         id="path1528"
         sodipodi:nodetypes="sssss"
         inkscape:connector-curvature="0"
         d="m 385.85945,396.92445 c -5.29193,-1.71393 -7.2444,4.74279 -1.74819,7.79279 5.72464,3.17678 14.98832,5.19812 21.89127,4.91104 5.76826,-0.23991 7.0661,-7.19123 1.74826,-7.79279 -7.75472,-0.87723 -14.75379,-2.59934 -21.89134,-4.91104 z"
         style="fill:#ffffff;fill-opacity:1;stroke:none;stroke-width:0.50807327px;stroke-linecap:butt;stroke-linejoin:miter;stroke-opacity:1">
        <animateTransform
           id="animateTransform7837"
           fill="freeze"
           accumulate="none"
           additive="sum"
           repeatCount="1"
           begin="60s"
           dur="2s"
           keySplines=".5 0 .5 1"
           keyTimes="0;1"
           calcMode="spline"
           values="0 0;-10.927603450508343 -13.149617478379845"
           type="translate"
           attributeType="auto"
           attributeName="transform" />
      </path>
    </g>
  </g>
</svg>
