<?xml version="1.0" encoding="UTF-8" standalone="no"?>
<!-- Created with Inkscape (http://www.inkscape.org/) -->

<svg
   xmlns:dc="http://purl.org/dc/elements/1.1/"
   xmlns:cc="http://creativecommons.org/ns#"
   xmlns:rdf="http://www.w3.org/1999/02/22-rdf-syntax-ns#"
   xmlns:svg="http://www.w3.org/2000/svg"
   xmlns="http://www.w3.org/2000/svg"
   xmlns:sodipodi="http://sodipodi.sourceforge.net/DTD/sodipodi-0.dtd"
   xmlns:inkscape="http://www.inkscape.org/namespaces/inkscape"
   width="128"
   height="128"
   id="svg2"
   version="1.1"
   inkscape:version="0.91 r13725"
   sodipodi:docname="manual_entry.svg"
   inkscape:export-filename="/home/doctormo/Desktop/ubuntu-studio-settings.png"
   inkscape:export-xdpi="90"
   inkscape:export-ydpi="90">
  <defs
     id="defs4" />
  <sodipodi:namedview
     id="base"
     pagecolor="#bebebe"
     bordercolor="#666666"
     borderopacity="1.0"
     inkscape:pageopacity="0"
     inkscape:pageshadow="2"
     inkscape:zoom="4"
     inkscape:cx="-41.665088"
     inkscape:cy="33.21374"
     inkscape:document-units="px"
     inkscape:current-layer="layer1"
     showgrid="false"
     fit-margin-top="0"
     fit-margin-left="0"
     fit-margin-right="0"
     fit-margin-bottom="0"
     inkscape:window-width="1855"
     inkscape:window-height="1056"
     inkscape:window-x="65"
     inkscape:window-y="24"
     inkscape:window-maximized="1" />
  <metadata
     id="metadata7">
    <rdf:RDF>
      <cc:Work
         rdf:about="">
        <dc:format>image/svg+xml</dc:format>
        <dc:type
           rdf:resource="http://purl.org/dc/dcmitype/StillImage" />
        <dc:title />
      </cc:Work>
    </rdf:RDF>
  </metadata>
  <g
     inkscape:label="Layer 1"
     inkscape:groupmode="layer"
     id="layer1"
     transform="translate(-442.85714,-324.63575)">
    <path
       style="fill:#babdb6;fill-rule:evenodd;stroke:none;stroke-width:1px;stroke-linecap:butt;stroke-linejoin:miter;stroke-opacity:1"
       d="m 547.61741,375.57167 7.72897,8.39294 c 2.19834,-2.02443 -0.5272,-9.5106 -2.6932,-13.03033 l -5.03577,4.63739 z"
       id="path5940"
       sodipodi:nodetypes="cccc"
       inkscape:connector-curvature="0" />
    <rect
       style="opacity:1;fill:#babdb6;fill-opacity:1;fill-rule:evenodd;stroke:none;stroke-width:0.99999994;stroke-linecap:round;stroke-linejoin:miter;stroke-miterlimit:10;stroke-dasharray:none;stroke-opacity:1"
       id="rect6988"
       width="9.1276598"
       height="4.5638299"
       x="644.95239"
       y="-134.72234"
       rx="0"
       ry="0"
       transform="matrix(0.67741071,0.73560501,-0.73560501,0.67741071,0,0)" />
    <path
       inkscape:connector-curvature="0"
       style="fill:#babdb6;fill-opacity:1;fill-rule:evenodd;stroke:none;stroke-width:0.99999994;stroke-linecap:round;stroke-linejoin:round;stroke-miterlimit:4;stroke-dasharray:none;stroke-opacity:1"
       d="m 463.0164,415.37422 51.23345,-49.60643 -7.08663,-7.31906 -5.85526,5.6693 c -0.22671,-0.25224 -0.55875,-0.57708 -0.79724,-0.82338 -10.56191,-10.90834 -27.98705,-11.1895 -38.89539,-0.62758 -10.90833,10.56192 -11.18948,27.98705 -0.62757,38.89539 0.23849,0.2463 0.59813,0.54444 0.84299,0.7791 l -5.901,5.7136 7.08664,7.31907 z m 5.29043,-20.89839 c -6.65009,-6.86822 -6.47307,-17.83959 0.39513,-24.48969 6.86822,-6.6501 17.83959,-6.47308 24.4897,0.39514 0.23683,0.2446 0.57769,0.56853 0.79724,0.82339 l -24.88482,24.09454 c -0.24764,-0.22765 -0.56041,-0.57879 -0.79725,-0.82338 z"
       id="rect7157"
       sodipodi:nodetypes="ccccsssccccssccc" />
    <rect
       style="opacity:1;fill:#babdb6;fill-opacity:1;fill-rule:evenodd;stroke:none;stroke-width:1;stroke-linecap:round;stroke-linejoin:round;stroke-miterlimit:4;stroke-dasharray:none;stroke-opacity:1"
       id="rect5983"
       width="4.6963139"
       height="13.691489"
       x="635.82471"
       y="-70.82872"
       transform="matrix(0.67741071,0.73560501,-0.73560501,0.67741071,0,0)" />
    <path
       style="fill:#babdb6;fill-opacity:1;fill-rule:evenodd;stroke:none;stroke-width:1px;stroke-linecap:butt;stroke-linejoin:miter;stroke-opacity:1"
       d="M 556.14315,364.61832 545.32259,352.8682 c -3.14546,-3.41568 -20.4503,-15.37656 -20.4503,-15.37656 -2.18498,-0.68298 -3.87489,0.55227 -6.49215,2.96248 l 17.00372,18.46446 c 2.02398,-1.86385 2.87095,-0.251 4.77018,1.81139 l -62.10776,57.19436 9.27476,10.07153 60.37672,-55.60027 c 3.48943,3.7892 11.78931,7.75591 14.36298,5.38585 l -9.27477,-10.07153 3.35718,-3.09159 z"
       id="path5931"
       sodipodi:nodetypes="cccccccccccc"
       inkscape:connector-curvature="0" />
    <path
       style="opacity:1;fill:#babdb6;fill-opacity:1;fill-rule:evenodd;stroke:none;stroke-width:1;stroke-linecap:round;stroke-linejoin:miter;stroke-miterlimit:10;stroke-dasharray:none;stroke-opacity:1"
       d="m 515.02296,343.5457 c -2.61726,2.41021 -3.98683,3.98147 -3.48583,6.21521 l 12.86951,20.81753 c 0.2649,0.91365 -0.0664,1.61218 -0.90569,2.38508 l -8.39295,7.72897 -1.54579,-1.67859 c -0.85636,-0.92993 -2.29443,-0.98916 -3.22437,-0.13279 -0.92994,0.85637 -0.98917,2.29444 -0.1328,3.22438 l 1.54579,1.67858 3.09159,3.35718 20.14305,-18.54952 -3.09158,-3.35718 c -1.57355,-1.7043 -1.38519,-1.82648 0.1328,-3.22438 L 515.02296,343.5457 Z m 26.14569,31.76038 -20.14306,18.54952 3.09159,3.35718 20.14306,-18.54952 -3.09159,-3.35718 z"
       id="rect6990"
       sodipodi:nodetypes="ccccccscccccccccccc"
       inkscape:connector-curvature="0" />
    <rect
       style="opacity:1;fill:#babdb6;fill-opacity:1;fill-rule:evenodd;stroke:none;stroke-width:1;stroke-linecap:round;stroke-linejoin:miter;stroke-miterlimit:10;stroke-dasharray:none;stroke-opacity:1"
       id="rect6986"
       width="4.5638299"
       height="9.1276598"
       x="651.7981"
       y="-137.00426"
       rx="1.1012843"
       ry="1.1012843"
       transform="matrix(0.67741071,0.73560501,-0.73560501,0.67741071,0,0)" />
  </g>
</svg>
